# File created by Blade
# Date/Time:  Thu Jan 22 19:24:27 2015
#---------------------------------------------------------
:version 1.10
:name HOM
:units
  mass 1.0
  length 1.000000
  angle deg
:documentation
     Acclaim Skeleton File
:root
   axis xyz
   order TX TY TZ RX RY RZ
   position 0.000000 0.000000 0.000000
   orientation 0 0 0
:bonedata
   begin
      id 1
      name RightUpLeg_dum
      direction -1.000000 0.000000 0.000000
      length 4.478084
      axis 0.0 0.0 0.0 xyz
   end
   begin
      id 2
      name LeftUpLeg_dum
      direction 1.000000 0.000000 0.000000
      length 4.478084
      axis 0.0 0.0 0.0 xyz
   end
   begin
      id 3
      name Spine_dum
      direction 0.000000 1.000000 0.000000
      length 6.068208
      axis 0.0 0.0 0.0 xyz
   end
   begin
      id 4
      name RightUpLeg
      direction 0.000000 -1.000000 0.000000
      length 16.405774
      axis 0.0 0.0 0.0 xyz
      dof rx ry rz
   end
   begin
      id 5
      name RightLeg
      direction 0.000000 -1.000000 0.000000
      length 14.644143
      axis 0.0 0.0 0.0 xyz
      dof rx ry rz
   end
   begin
      id 6
      name RightFoot
      direction 0.000000 -0.258819 0.965926
      length 5.806150
      axis 15.0 0.0 0.0 xyz
      dof rx ry rz
   end
   begin
      id 7
      name RightToeBase
      direction 0.000000 0.000000 1.000000
      length 2.952750
      axis 0.0 0.0 0.0 xyz
      dof rx ry rz
   end
   begin
      id 8
      name LeftUpLeg
      direction 0.000000 -1.000000 0.000000
      length 16.405774
      axis 0.0 0.0 0.0 xyz
      dof rx ry rz
   end
   begin
      id 9
      name LeftLeg
      direction 0.000000 -1.000000 0.000000
      length 14.644143
      axis 0.0 0.0 0.0 xyz
      dof rx ry rz
   end
   begin
      id 10
      name LeftFoot
      direction 0.000000 -0.258819 0.965926
      length 5.806150
      axis 15.0 0.0 0.0 xyz
      dof rx ry rz
   end
   begin
      id 11
      name LeftToeBase
      direction 0.000000 0.000000 1.000000
      length 2.952750
      axis 0.0 0.0 0.0 xyz
      dof rx ry rz
   end
   begin
      id 12
      name Spine
      direction 0.000000 1.000000 0.000000
      length 0.000000
      axis 0.0 0.0 0.0 xyz
      dof rx ry rz
   end
   begin
      id 13
      name Spine_dum1
      direction 0.000000 1.000000 0.000000
      length 10.013923
      axis 0.0 0.0 0.0 xyz
   end
   begin
      id 14
      name Spine_dum2
      direction 0.000000 1.000000 0.000000
      length 10.013923
      axis 0.0 0.0 0.0 xyz
   end
   begin
      id 15
      name Spine_dum3
      direction 0.000000 1.000000 0.000000
      length 15.777476
      axis 0.0 0.0 0.0 xyz
   end
   begin
      id 16
      name RightShoulder
      direction -1.000000 0.000000 0.000000
      length 7.190220
      axis 0.0 0.0 90.0 xyz
      dof rx ry rz
   end
   begin
      id 17
      name RightArm
      direction -1.000000 0.000000 0.000000
      length 10.177469
      axis 0.0 0.0 90.0 xyz
      dof rx ry rz
   end
   begin
      id 18
      name RightForeArm
      direction -1.000000 0.000000 0.000000
      length 8.392114
      axis 0.0 0.0 90.0 xyz
      dof ry rz rx
   end
   begin
      id 19
      name RightHand
      direction -1.000000 0.000000 0.000000
      length 0.000000
      axis 0.0 0.0 90.0 xyz
      dof rx ry rz
   end
   begin
      id 20
      name RightHand_dum1
      direction -1.000000 0.000000 0.000000
      length 3.937000
      axis 0.0 0.0 90.0 xyz
   end
   begin
      id 21
      name RightHand_dum2
      direction 0.000000 0.000000 0.000000
      length 0.000000
      axis 0.0 0.0 90.0 xyz
   end
   begin
      id 22
      name RightHandThumb1
      direction 0.000000 0.000000 1.000000
      length 3.937000
      axis 0.0 0.0 90.0 xyz
      dof rx rz ry
   end
   begin
      id 23
      name LeftShoulder
      direction 1.000000 0.000000 0.000000
      length 7.190220
      axis 0.0 0.0 -90.0 xyz
      dof rx ry rz
   end
   begin
      id 24
      name LeftArm
      direction 1.000000 0.000000 0.000000
      length 10.177469
      axis 0.0 0.0 -90.0 xyz
      dof rx ry rz
   end
   begin
      id 25
      name LeftForeArm
      direction 1.000000 0.000000 0.000000
      length 8.392114
      axis 0.0 0.0 -90.0 xyz
      dof ry rz rx
   end
   begin
      id 26
      name LeftHand
      direction 1.000000 0.000000 0.000000
      length 0.000000
      axis 0.0 0.0 -90.0 xyz
      dof rx ry rz
   end
   begin
      id 27
      name LeftHand_dum1
      direction 1.000000 0.000000 0.000000
      length 3.937000
      axis 0.0 0.0 -90.0 xyz
   end
   begin
      id 28
      name LeftHand_dum2
      direction 0.000000 0.000000 0.000000
      length 0.000000
      axis 0.0 0.0 -90.0 xyz
   end
   begin
      id 29
      name LeftHandThumb1
      direction 0.000000 0.000000 1.000000
      length 3.937000
      axis 0.0 0.0 -90.0 xyz
      dof rx rz ry
   end
   begin
      id 30
      name Head
      direction 0.000000 1.000000 0.000000
      length 4.527550
      axis 0.0 0.0 0.0 xyz
      dof rx ry rz
   end
:hierarchy
   begin
      root RightUpLeg_dum LeftUpLeg_dum Spine_dum
      RightUpLeg_dum RightUpLeg
      LeftUpLeg_dum LeftUpLeg
      Spine_dum Spine
      RightUpLeg RightLeg
      RightLeg RightFoot
      RightFoot RightToeBase
      LeftUpLeg LeftLeg
      LeftLeg LeftFoot
      LeftFoot LeftToeBase
      Spine Spine_dum1 Spine_dum2 Spine_dum3
      Spine_dum1 RightShoulder
      Spine_dum2 LeftShoulder
      Spine_dum3 Head
      RightShoulder RightArm
      RightArm RightForeArm
      RightForeArm RightHand
      RightHand RightHand_dum1 RightHand_dum2
      RightHand_dum2 RightHandThumb1
      LeftShoulder LeftArm
      LeftArm LeftForeArm
      LeftForeArm LeftHand
      LeftHand LeftHand_dum1 LeftHand_dum2
      LeftHand_dum2 LeftHandThumb1
   end

# File created by Blade
# Date/Time:  Thu Jan 22 19:24:19 2015
# Frame Rate: 120.000 fps
#------------------------------------------------------
:FULLY-SPECIFIED
:DEGREES
1673
root 2.404517 32.369209 -3.361060 10.581263 20.345116 10.608288
RightUpLeg -15.149413 -3.857754 9.475539
RightLeg 19.307502 -0.000000 -0.000000
RightFoot -17.251293 -13.253582 -6.823725
RightToeBase 0.499901 -0.000000 -0.000000
LeftUpLeg 1.634489 -19.877840 -15.780276
LeftLeg -4.384349 -0.000000 0.000000
LeftFoot -4.845721 -1.325847 -7.750947
LeftToeBase 8.135312 -0.000000 -0.000000
Spine -8.552750 -14.344612 -6.837299
RightShoulder -22.461515 -18.169474 -26.123330
RightArm 10.312846 41.783976 53.029109
RightForeArm 0.948811 -0.000000 20.352422
RightHand 17.734255 0.000000 -9.058744
RightHandThumb1 -24.326973 -0.000000 -32.862282
LeftShoulder -21.487413 5.530612 25.654648
LeftArm 16.363081 -26.162721 -46.025919
LeftForeArm 13.334754 -0.000000 3.842255
LeftHand -0.155612 -0.000000 5.321226
LeftHandThumb1 -26.253704 0.000000 33.147579
Head -3.118198 -2.230796 -7.722029
1674
root 2.405565 32.368004 -3.350537 10.558016 20.374604 10.607726
RightUpLeg -15.109095 -3.835451 9.478344
RightLeg 19.322708 -0.000000 -0.000000
RightFoot -17.326836 -13.272080 -6.780293
RightToeBase 0.405313 -0.000000 -0.000000
LeftUpLeg 1.684726 -19.962724 -15.784693
LeftLeg -4.398076 -0.000000 0.000000
LeftFoot -4.845832 -1.282086 -7.703284
LeftToeBase 8.053358 -0.000000 -0.000000
Spine -8.592344 -14.389448 -6.790868
RightShoulder -22.439374 -18.163047 -26.121637
RightArm 10.315894 41.906966 53.077823
RightForeArm 0.998459 0.000000 20.650886
RightHand 17.687547 0.000000 -9.259981
RightHandThumb1 -24.326973 -0.000000 -32.862282
LeftShoulder -21.499722 5.555815 25.659125
LeftArm 16.194685 -26.365762 -45.984432
LeftForeArm 13.145701 -0.000000 3.895260
LeftHand -0.261268 -0.000000 5.419167
LeftHandThumb1 -26.253704 0.000000 33.147579
Head -2.994204 -2.182569 -7.695471
1675
root 2.406066 32.366385 -3.340125 10.531065 20.412112 10.623118
RightUpLeg -15.075591 -3.825341 9.467335
RightLeg 19.380464 -0.000000 -0.000000
RightFoot -17.393743 -13.349427 -6.828894
RightToeBase 0.298088 -0.000000 -0.000000
LeftUpLeg 1.740862 -20.031747 -15.805911
LeftLeg -4.400551 -0.000000 0.000000
LeftFoot -4.851511 -1.265136 -7.660094
LeftToeBase 8.104211 -0.000000 -0.000000
Spine -8.616350 -14.438244 -6.773260
RightShoulder -22.401891 -18.127409 -26.103670
RightArm 10.237907 41.968619 53.059236
RightForeArm 1.052663 -0.000000 20.977004
RightHand 17.672752 -0.000000 -9.429089
RightHandThumb1 -24.326973 -0.000000 -32.862282
LeftShoulder -21.552634 5.700716 25.625953
LeftArm 16.167780 -26.685658 -46.027060
LeftForeArm 13.022778 0.000000 3.992289
LeftHand -0.216039 -0.000000 5.393248
LeftHandThumb1 -26.253704 0.000000 33.147579
Head -2.823977 -2.199748 -7.639316
1676
root 2.407305 32.364709 -3.326903 10.494942 20.421419 10.628709
RightUpLeg -15.035990 -3.767563 9.456506
RightLeg 19.445022 -0.000000 -0.000000
RightFoot -17.491805 -13.389964 -6.772147
RightToeBase 0.195330 -0.000000 -0.000000
LeftUpLeg 1.815580 -20.089625 -15.826912
LeftLeg -4.424316 -0.000000 0.000000
LeftFoot -4.846616 -1.220493 -7.612900
LeftToeBase 8.086090 -0.000000 -0.000000
Spine -8.641788 -14.453727 -6.756775
RightShoulder -22.379887 -18.096701 -26.044938
RightArm 10.150595 41.955177 52.985632
RightForeArm 1.096189 -0.000000 21.307104
RightHand 17.706115 0.000000 -9.463251
RightHandThumb1 -24.326973 -0.000000 -32.862282
LeftShoulder -21.549408 5.720008 25.673044
LeftArm 15.940460 -26.905685 -46.033019
LeftForeArm 12.752411 -0.000000 4.167545
LeftHand -0.205452 -0.000000 5.503391
LeftHandThumb1 -26.253704 0.000000 33.147579
Head -2.640264 -2.237485 -7.588780
1677
root 2.409160 32.361910 -3.315740 10.468200 20.438008 10.648437
RightUpLeg -15.017683 -3.687534 9.423353
RightLeg 19.547002 -0.000000 -0.000000
RightFoot -17.622802 -13.448751 -6.731150
RightToeBase -0.022239 -0.000000 0.000000
LeftUpLeg 1.878390 -20.175582 -15.858072
LeftLeg -4.436496 -0.000000 0.000000
LeftFoot -4.862784 -1.170520 -7.556985
LeftToeBase 8.119500 -0.000000 -0.000000
Spine -8.681524 -14.482568 -6.721453
RightShoulder -22.356844 -18.095830 -26.031318
RightArm 10.104984 41.967171 53.004292
RightForeArm 1.006858 -0.000000 21.670951
RightHand 17.689583 -0.000000 -9.599995
RightHandThumb1 -24.326973 -0.000000 -32.862282
LeftShoulder -21.567406 5.740823 25.655598
LeftArm 15.775775 -27.112950 -46.014889
LeftForeArm 12.666697 -0.000000 4.294646
LeftHand -0.149258 -0.000000 5.497160
LeftHandThumb1 -26.253704 0.000000 33.147579
Head -2.434047 -2.202651 -7.605686
1678
root 2.409949 32.358747 -3.304691 10.435439 20.449149 10.673184
RightUpLeg -15.000368 -3.625102 9.396221
RightLeg 19.662565 -0.000000 -0.000000
RightFoot -17.741136 -13.530390 -6.685861
RightToeBase -0.448827 -0.000000 0.000000
LeftUpLeg 1.947882 -20.249323 -15.897404
LeftLeg -4.445477 -0.000000 0.000000
LeftFoot -4.870934 -1.114953 -7.517103
LeftToeBase 8.131265 -0.000000 -0.000000
Spine -8.703307 -14.515662 -6.713957
RightShoulder -22.349661 -18.162802 -25.931658
RightArm 10.149497 41.967523 53.047101
RightForeArm 0.925947 -0.000000 22.027584
RightHand 17.689172 0.000000 -9.734321
RightHandThumb1 -24.326973 -0.000000 -32.862282
LeftShoulder -21.584265 5.738467 25.704555
LeftArm 15.548862 -27.204023 -46.011364
LeftForeArm 12.414346 -0.000000 4.471736
LeftHand -0.163278 0.000000 5.695842
LeftHandThumb1 -26.253704 0.000000 33.147579
Head -2.202694 -2.280607 -7.607160
1679
root 2.412703 32.354947 -3.292966 10.399827 20.462018 10.703338
RightUpLeg -14.979430 -3.571388 9.366272
RightLeg 19.783256 -0.000000 -0.000000
RightFoot -17.825746 -13.700506 -6.745401
RightToeBase -0.757427 -0.000000 0.000000
LeftUpLeg 2.025318 -20.298719 -15.949315
LeftLeg -4.458941 -0.000000 0.000000
LeftFoot -4.874313 -1.073072 -7.426097
LeftToeBase 8.156159 -0.000000 -0.000000
Spine -8.731739 -14.543214 -6.690934
RightShoulder -22.333793 -18.212641 -25.889468
RightArm 10.121673 41.840632 53.064724
RightForeArm 0.925810 0.000000 22.379736
RightHand 17.721347 -0.000000 -9.862395
RightHandThumb1 -24.326973 -0.000000 -32.862282
LeftShoulder -21.610289 5.771928 25.701302
LeftArm 15.391369 -27.276076 -46.013466
LeftForeArm 12.241914 -0.000000 4.644812
LeftHand -0.216784 -0.000000 5.763357
LeftHandThumb1 -26.253704 0.000000 33.147579
Head -1.970537 -2.211090 -7.633825
1680
root 2.414409 32.350856 -3.281025 10.359717 20.441361 10.731841
RightUpLeg -14.964008 -3.454108 9.326800
RightLeg 19.923705 -0.000000 -0.000000
RightFoot -17.905759 -13.911809 -6.750097
RightToeBase -0.957064 -0.000000 0.000000
LeftUpLeg 2.103437 -20.320393 -16.001476
LeftLeg -4.474585 -0.000000 0.000000
LeftFoot -4.871460 -1.054591 -7.351530
LeftToeBase 8.061797 -0.000000 -0.000000
Spine -8.749832 -14.522536 -6.695428
RightShoulder -22.339990 -18.250509 -25.775377
RightArm 10.119695 41.784361 53.074157
RightForeArm 0.812461 -0.000000 22.726311
RightHand 17.685881 -0.000000 -9.937342
RightHandThumb1 -24.326973 -0.000000 -32.862282
LeftShoulder -21.632387 5.782270 25.746431
LeftArm 15.247753 -27.417977 -46.081171
LeftForeArm 12.181381 -0.000000 4.795014
LeftHand -0.212373 -0.000000 5.860004
LeftHandThumb1 -26.253704 0.000000 33.147579
Head -1.724842 -2.293015 -7.635497
1681
root 2.417086 32.346603 -3.268118 10.314272 20.415276 10.761982
RightUpLeg -14.958780 -3.361818 9.295853
RightLeg 20.083193 -0.000000 -0.000000
RightFoot -17.990224 -14.138310 -6.771343
RightToeBase -1.141048 -0.000000 0.000000
LeftUpLeg 2.185539 -20.303703 -16.060365
LeftLeg -4.485550 -0.000000 0.000000
LeftFoot -4.878183 -1.047117 -7.285017
LeftToeBase 8.064445 -0.000000 -0.000000
Spine -8.769320 -14.490801 -6.689351
RightShoulder -22.329196 -18.235169 -25.718102
RightArm 10.055292 41.735423 53.085467
RightForeArm 0.617150 -0.000000 23.038711
RightHand 17.756977 -0.000000 -9.865803
RightHandThumb1 -24.326973 -0.000000 -32.862282
LeftShoulder -21.679517 5.887874 25.718059
LeftArm 15.222308 -27.588202 -46.183634
LeftForeArm 12.189684 -0.000000 4.975599
LeftHand -0.218438 -0.000000 5.824458
LeftHandThumb1 -26.253704 0.000000 33.147579
Head -1.469553 -2.326860 -7.661446
1682
root 2.420259 32.341486 -3.256944 10.274648 20.375219 10.809395
RightUpLeg -14.968590 -3.258000 9.246074
RightLeg 20.280959 -0.000000 -0.000000
RightFoot -18.132364 -14.326261 -6.734925
RightToeBase -1.276426 -0.000000 0.000000
LeftUpLeg 2.260280 -20.277739 -16.131160
LeftLeg -4.491815 -0.000000 0.000000
LeftFoot -4.885953 -1.074878 -7.259790
LeftToeBase 8.048958 -0.000000 -0.000000
Spine -8.784878 -14.429882 -6.712748
RightShoulder -22.362919 -18.319769 -25.602367
RightArm 10.132115 41.721622 53.195088
RightForeArm 0.404154 -0.000000 23.309612
RightHand 17.746017 0.000000 -9.901121
RightHandThumb1 -24.326973 -0.000000 -32.862282
LeftShoulder -21.705536 5.889725 25.743113
LeftArm 15.138270 -27.643140 -46.259670
LeftForeArm 12.099550 -0.000000 5.094475
LeftHand -0.272166 -0.000000 5.950312
LeftHandThumb1 -26.253704 0.000000 33.147579
Head -1.208817 -2.395625 -7.692718
